<?xml version="1.0" encoding="utf-8"?>
<!-- Generator: Adobe Illustrator 23.0.3, SVG Export Plug-In . SVG Version: 6.00 Build 0)  -->
<svg version="1.1" id="Layer_1" xmlns="http://www.w3.org/2000/svg" xmlns:xlink="http://www.w3.org/1999/xlink" x="0px" y="0px"
	 viewBox="0 0 24 24" style="enable-background:new 0 0 24 24;" xml:space="preserve">
<style type="text/css">
	.st0{fill:#A70000;}
	.st1{fill:#00A7FF;}
	.st2{fill:#E1FF33;}
	.st3{fill:none;}
	.st4{fill:#002B7C;}
	.st5{fill:#FFFFFF;}
	.st6{fill:#722AB1;}
	.st7{fill:#005F58;}
	.st8{fill:#2CFF86;}
	.st9{fill:#FF7474;}
</style>
<rect class="st4" width="24" height="24"/>
<path class="st5" d="M16.687,9.155c-0.254-0.627-0.632-1.196-1.111-1.673c-0.477-0.479-1.046-0.857-1.673-1.111
	C13.299,6.125,12.652,5.999,12,6c-0.652-0.001-1.299,0.125-1.903,0.37C9.47,6.624,8.901,7.002,8.423,7.481
	C7.944,7.959,7.567,8.528,7.313,9.155c-0.245,0.604-0.371,1.251-0.37,1.903c-0.001,0.652,0.125,1.299,0.371,1.903
	c0.254,0.627,0.632,1.196,1.111,1.673c0,0,0,0,0,0H8.424l3.506,3.506c0.039,0.039,0.102,0.039,0.141,0l3.505-3.505c0,0,0,0,0,0
	c0.479-0.477,0.857-1.046,1.111-1.673c0.246-0.605,0.371-1.251,0.37-1.903C17.059,10.406,16.933,9.759,16.687,9.155z M10.736,9.794
	c0.699-0.697,1.829-0.697,2.528,0c0.697,0.698,0.697,1.829,0,2.528c-0.699,0.697-1.829,0.697-2.528,0
	C10.039,11.623,10.039,10.492,10.736,9.794z"/>
</svg>
